<?xml version="1.0" encoding="utf-8"?>
<!-- Generator: Adobe Illustrator 21.1.0, SVG Export Plug-In . SVG Version: 6.00 Build 0)  -->
<svg version="1.1" id="Layer_1" xmlns="http://www.w3.org/2000/svg" xmlns:xlink="http://www.w3.org/1999/xlink" x="0px" y="0px"
	 viewBox="0 0 1850 365" style="enable-background:new 0 0 1850 365;" xml:space="preserve">
<style type="text/css">
	.st0{fill:#00D2FF;}
</style>
<g>
	<path class="st0" d="M719.1,108H568.7c-43.9,0-79.5,35.6-79.5,79.5V249c0,43.9,35.6,79.5,79.5,79.5h150.4
		c43.9,0,79.5-35.6,79.5-79.5v-61.5C798.6,143.6,763,108,719.1,108z M739.8,252c0,15.5-12.6,28.1-28.1,28.1H576
		c-15.5,0-28.1-12.6-28.1-28.1v-67.6c0-15.5,12.6-28.1,28.1-28.1h135.7c15.5,0,28.1,12.6,28.1,28.1V252z"/>
	<path class="st0" d="M1291,92.6h-30.2c-7.2,0-13-5.8-13-13V49.5c0-7.2,5.8-13,13-13h30.2c7.2,0,13,5.8,13,13v30.2
		C1304,86.8,1298.2,92.6,1291,92.6z"/>
	<path class="st0" d="M456.4,280.1h-17.5c0,0,0,0,0,0h-12.4c-15.5,0-28.1-12.6-28.1-28.1v-1.4v-47.5V78.9V64.6V50.2
		c0-7.6-6.1-13.7-13.7-13.7h-28.7c-7.6,0-13.7,6.1-13.7,13.7v14.4v14.4v124.2V249v1.6h0.1c0.9,43.2,36.1,77.9,79.4,77.9h25.9v0h8.8
		c7.6,0,13.7-6.1,13.7-13.7v-21C470.1,286.3,464,280.1,456.4,280.1z"/>
	<path class="st0" d="M1197.7,280.1H1088c0,0,0,0,0,0h-12.4c-15.5,0-28.1-12.6-28.1-28.1v-1.4v-47.5V78.9V64.6V50.2
		c0-7.6-6.1-13.7-13.7-13.7h-28.7c-7.6,0-13.7,6.1-13.7,13.7v14.4v14.4v124.2V249v1.6h0.1c0.9,43.2,36.1,77.9,79.4,77.9h25.9v0h101
		c7.6,0,13.7-6.1,13.7-13.7v-21C1211.5,286.3,1205.3,280.1,1197.7,280.1z"/>
	<path class="st0" d="M298.3,36.5h-32.1h-69.3h-81.1c-43.9,0-79.5,35.6-79.5,79.5v36.8v26.7v135.2c0,7.6,6.1,13.7,13.7,13.7h41.7
		c7.6,0,13.7-6.1,13.7-13.7v-56.5v-45.2c0-7.5,6-13.5,13.5-13.5h72.2c7.6,0,13.7-6.1,13.7-13.7v-23.3c0-7.6-6.1-13.7-13.7-13.7
		h-72.2c-7.5,0-13.5-6-13.5-13.5v-12.6V115c0-15.5,12.6-28.1,28.1-28.1h62c0.5,0.1,0.9,0.3,1.5,0.3h101.3c7.6,0,13.7-6.1,13.7-13.7
		V50.2C312,42.6,305.8,36.5,298.3,36.5z"/>
	<path class="st0" d="M882.4,203.1v-28.6c0-7.7,6.2-13.9,13.9-13.9h45.9c7.6,0,13.7-6.1,13.7-13.7v-23.3c0-7.6-6.1-13.7-13.7-13.7
		h-45.9c-7.7,0-13.9-6.2-13.9-13.9v-17V64.6V50.2c0-7.6-6.1-13.7-13.7-13.7H840c-7.6,0-13.7,6.1-13.7,13.7v14.4v14.4v124.2V249v1.6
		h0.1c0.9,43.2,36.1,77.9,79.4,77.9h25.9v0h8.8c7.6,0,13.7-6.1,13.7-13.7v-21c0-7.6-6.1-13.7-13.7-13.7h-17.5l0,0h-12.4
		c-15.5,0-28.1-12.6-28.1-28.1v-1.4V203.1z"/>
	<path class="st0" d="M1397.4,124.1v28.6c0,7.7,6.2,13.9,13.9,13.9h45.9c7.6,0,13.7,6.1,13.7,13.7v23.3c0,7.6-6.1,13.7-13.7,13.7
		h-45.9c-7.7,0-13.9,6.2-13.9,13.9v54.9v14.4v14.4c0,7.6-6.1,13.7-13.7,13.7h-28.7c-7.6,0-13.7-6.1-13.7-13.7v-14.4v-14.4V161.9V116
		v-1.6h0.1c0.9-43.2,36.1-77.9,79.4-77.9h25.9v0h8.8c7.6,0,13.7,6.1,13.7,13.7v21c0,7.6-6.1,13.7-13.7,13.7h-17.5l0,0h-12.4
		c-15.5,0-28.1,12.6-28.1,28.1v1.4V124.1z"/>
	<path class="st0" d="M1290.3,110.2h-28.7c-7.6,0-13.7,6.1-13.7,13.7v14.4v14.4v13.6v106.3v13.6v14.4v14.4c0,7.6,6.1,13.7,13.7,13.7
		h28.7c7.6,0,13.7-6.1,13.7-13.7v-14.4v-14.4v-13.6V166.3v-13.6v-14.4v-14.4C1304,116.4,1297.9,110.2,1290.3,110.2z"/>
	<path class="st0" d="M1613.4,204.8c-7.6,0-13.7,6.1-13.7,13.7v21c0,7.6,6.1,13.7,13.7,13.7h76.2h10.9h33.9c1.2,0,2.4,0,3.6-0.1
		c1.1,0,2.1,0.1,3.2,0.1c40.1,0,72.6-32.5,72.6-72.6c0-40.1-32.5-72.6-72.6-72.6c-1.1,0-2.2,0-3.3,0.1c-1.2,0-2.3-0.1-3.5-0.1
		h-150.4c-43.9,0-79.5,35.6-79.5,79.5V249c0,43.9,35.6,79.5,79.5,79.5h120.7v0h72c7.6,0,13.7-6.1,13.7-13.7v-21
		c0-7.6-6.1-13.7-13.7-13.7h-141.9v0h-43.5c-15.5,0-28.1-12.6-28.1-28.1v-67.6c0-15.5,12.6-28.1,28.1-28.1H1727c0.7,0,1.3,0,2,0.1
		c0.6,0,1.2-0.1,1.9-0.1c13.4,0,24.2,10.8,24.2,24.2c0,0.7,0,1.3-0.1,2v0c0,0,0,0,0,0c-0.2,2-0.6,4-1.2,5.9c0,0,0,0,0,0
		c-0.6,1.9-1.5,3.6-2.5,5.2c0,0,0,0,0,0c-1,1.6-2.3,3.1-3.6,4.4c0,0-0.1,0.1-0.1,0.1c-1.4,1.3-2.9,2.4-4.5,3.4c0,0-0.1,0.1-0.1,0.1
		c-0.5,0.3-1.1,0.6-1.6,0.9c0,0,0,0,0,0c-0.6,0.3-1.2,0.5-1.8,0.7c0,0,0,0,0,0c-0.6,0.2-1.2,0.4-1.8,0.6c-0.1,0-0.1,0-0.2,0.1
		c-2.1,0.6-4.3,0.9-6.6,0.9c-0.4,0-0.9,0-1.3,0c-0.8,0-1.7,0-2.5,0h-54.3H1613.4z"/>
</g>
</svg>
