<svg xmlns="http://www.w3.org/2000/svg" viewBox="0 0 360 360">
  <rect width="360" height="360" rx="72" fill="#003764"/>
  <g transform="translate(6,-2)">
    <path d="M298.3,36.5h-32.1h-69.3h-81.1c-43.9,0-79.5,35.6-79.5,79.5v36.8v26.7v135.2c0,7.6,6.1,13.7,13.7,13.7h41.7c7.6,0,13.7-6.1,13.7-13.7v-56.5v-45.2c0-7.5,6-13.5,13.5-13.5h72.2c7.6,0,13.7-6.1,13.7-13.7v-23.3c0-7.6-6.1-13.7-13.7-13.7h-72.2c-7.5,0-13.5-6-13.5-13.5v-12.6V115c0-15.5,12.6-28.1,28.1-28.1h62c0.5,0.1,0.9,0.3,1.5,0.3h101.3c7.6,0,13.7-6.1,13.7-13.7V50.2C312,42.6,305.8,36.5,298.3,36.5z" fill="#00D2FF"/>
  </g>
</svg>